<svg width="1709" height="299" viewBox="0 0 1709 299" fill="none" xmlns="http://www.w3.org/2000/svg">
<path d="M116.341 69.7596L7.62939e-06 254.922H53.4669L71.7544 224.166H129.758V254.922H177.756V69.7596H116.341ZM129.79 122.521V187.746H90.3406L129.79 122.521ZM601.439 186.11L581.489 121.763L560.978 186.11H601.439ZM614.774 69.7561L674.567 254.931H620.358L611.032 224.163H551.652L542.691 254.931H488.727L550.144 69.7561H614.774ZM503.798 69.7587V116.071H407.618V151.53H489.254V193.542H407.618V254.922H359.98V69.7587H503.798ZM340.823 207.653V254.925H198.617V69.7622H246.946V207.653H340.823Z" fill="#EA1A2D"/>
<path d="M715.34 64.2812H665.855V19.4246H820.25V64.2812H770.765V254.918H715.34V64.2812ZM828.829 76.4837H880.294V101.551H880.955C887.882 85.7193 901.41 71.8667 923.842 71.8667C926.48 71.8667 929.119 71.8667 932.42 72.5257V122.66C927.141 121.67 922.852 121.341 917.574 121.341C896.128 121.341 882.275 130.245 882.275 153.663V254.918H828.829V76.4837ZM1011.93 222.596C1023.14 222.596 1033.37 216 1033.37 198.189C1033.37 183.347 1033.7 174.112 1033.7 166.855C1016.87 175.762 1009.62 176.091 1004.67 180.049C999.058 184.337 996.419 189.944 996.419 199.839C996.419 214.02 1002.03 222.596 1011.93 222.596ZM949.903 131.236C950.235 106.828 957.493 91.9858 970.028 83.4109C982.565 74.8352 997.739 71.8667 1019.84 71.8667C1063.72 71.8667 1083.19 87.0385 1083.19 124.638V216.33C1083.19 229.852 1083.19 247.002 1089.45 254.918H1037.99C1036.01 248.652 1035.35 241.395 1035.02 234.47H1034.36C1027.1 250.302 1010.28 259.536 992.462 259.536C962.44 259.536 944.953 243.706 944.953 205.116C944.953 184.337 953.532 166.855 966.727 159.6C979.927 152.344 999.72 149.045 1014.56 145.088C1030.73 140.799 1033.7 138.161 1033.7 124.638C1033.7 113.755 1028.75 106.828 1016.87 106.828C1002.03 106.828 997.739 115.733 997.411 131.236H949.903ZM1115.85 19.4246H1169.3V140.47H1169.95L1209.87 76.4837H1268.6L1217.46 148.386L1274.87 254.918H1216.47L1183.15 187.635L1169.3 206.435V254.918H1115.85V19.4246ZM1348.1 222.596C1359.32 222.596 1369.55 216 1369.55 198.189C1369.55 183.347 1369.88 174.112 1369.88 166.855C1353.05 175.762 1345.79 176.091 1340.85 180.049C1335.24 184.337 1332.6 189.944 1332.6 199.839C1332.6 214.02 1338.21 222.596 1348.1 222.596ZM1286.08 131.236C1286.41 106.828 1293.67 91.9858 1306.21 83.4109C1318.74 74.8352 1333.92 71.8667 1356.02 71.8667C1399.9 71.8667 1419.36 87.0385 1419.36 124.638V216.33C1419.36 229.852 1419.36 247.002 1425.63 254.918H1374.17C1372.19 248.652 1371.53 241.395 1371.2 234.47H1370.54C1363.28 250.302 1346.46 259.536 1328.64 259.536C1298.62 259.536 1281.13 243.706 1281.13 205.116C1281.13 184.337 1289.71 166.855 1302.91 159.6C1316.1 152.344 1335.9 149.045 1350.74 145.088C1366.91 140.799 1369.88 138.161 1369.88 124.638C1369.88 113.755 1364.93 106.828 1353.05 106.828C1338.21 106.828 1333.92 115.733 1333.59 131.236H1286.08ZM1705.21 255.666H1470.07V20.5873H1705.21V255.666Z" fill="#231F20"/>
<path d="M1705.21 255.666H1470.07V20.5873H1705.21V255.666Z" stroke="#EA1A2D" stroke-width="0.878215" stroke-miterlimit="10"/>
<path d="M1564.71 259.298L1587.6 282.181L1610.58 259.204L1564.71 259.298Z" fill="#EA1A2D"/>
<path d="M1678.64 229.094H1496.65V47.1595H1678.64V229.094Z" fill="white"/>
<path d="M1660.8 211.265H1667.16V217.625H1660.8V211.265ZM1654.44 211.265H1660.8V217.625H1654.44V211.265ZM1648.08 211.265H1654.44V217.625H1648.08V211.265ZM1641.72 211.265H1648.08V217.625H1641.72V211.265ZM1635.35 211.265H1641.72V217.625H1635.35V211.265ZM1628.99 211.265H1635.35V217.625H1628.99V211.265ZM1622.63 211.265H1628.99V217.625H1622.63V211.265ZM1616.27 211.265H1622.63V217.625H1616.27V211.265ZM1597.19 211.265H1603.55V217.625H1597.19V211.265ZM1590.83 211.265H1597.19V217.625H1590.83V211.265ZM1584.46 211.265H1590.83V217.625H1584.46V211.265ZM1571.74 211.265H1578.1V217.625H1571.74V211.265ZM1559.02 211.265H1565.38V217.625H1559.02V211.265ZM1546.3 211.265H1552.66V217.625H1546.3V211.265ZM1539.93 211.265H1546.3V217.625H1539.93V211.265ZM1533.57 211.265H1539.93V217.625H1533.57V211.265ZM1527.21 211.265H1533.57V217.625H1527.21V211.265ZM1520.85 211.265H1527.21V217.625H1520.85V211.265ZM1514.49 211.265H1520.85V217.625H1514.49V211.265ZM1508.13 211.265H1514.49V217.625H1508.13V211.265ZM1660.8 204.905H1667.16V211.265H1660.8V204.905ZM1641.72 204.905H1648.08V211.265H1641.72V204.905ZM1635.35 204.905H1641.72V211.265H1635.35V204.905ZM1628.99 204.905H1635.35V211.265H1628.99V204.905ZM1622.63 204.905H1628.99V211.265H1622.63V204.905ZM1609.91 204.905H1616.27V211.265H1609.91V204.905ZM1603.55 204.905H1609.91V211.265H1603.55V204.905ZM1584.46 204.905H1590.83V211.265H1584.46V204.905ZM1578.1 204.905H1584.46V211.265H1578.1V204.905ZM1571.74 204.905H1578.1V211.265H1571.74V204.905ZM1559.02 204.905H1565.38V211.265H1559.02V204.905ZM1546.3 204.905H1552.66V211.265H1546.3V204.905ZM1508.13 204.905H1514.49V211.265H1508.13V204.905ZM1660.8 198.545H1667.16V204.905H1660.8V198.545ZM1648.08 198.545H1654.44V204.905H1648.08V198.545ZM1628.99 198.545H1635.35V204.905H1628.99V198.545ZM1609.91 198.545H1616.27V204.905H1609.91V198.545ZM1597.19 198.545H1603.55V204.905H1597.19V198.545ZM1590.83 198.545H1597.19V204.905H1590.83V198.545ZM1571.74 198.545H1578.1V204.905H1571.74V198.545ZM1559.02 198.545H1565.38V204.905H1559.02V198.545ZM1546.3 198.545H1552.66V204.905H1546.3V198.545ZM1533.57 198.545H1539.93V204.905H1533.57V198.545ZM1527.21 198.545H1533.57V204.905H1527.21V198.545ZM1520.85 198.545H1527.21V204.905H1520.85V198.545ZM1508.13 198.545H1514.49V204.905H1508.13V198.545ZM1660.8 192.185H1667.16V198.545H1660.8V192.185ZM1654.44 192.185H1660.8V198.545H1654.44V192.185ZM1648.08 192.185H1654.44V198.545H1648.08V192.185ZM1635.35 192.185H1641.72V198.545H1635.35V192.185ZM1628.99 192.185H1635.35V198.545H1628.99V192.185ZM1622.63 192.185H1628.99V198.545H1622.63V192.185ZM1616.27 192.185H1622.63V198.545H1616.27V192.185ZM1603.55 192.185H1609.91V198.545H1603.55V192.185ZM1590.83 192.185H1597.19V198.545H1590.83V192.185ZM1578.1 192.185H1584.46V198.545H1578.1V192.185ZM1571.74 192.185H1578.1V198.545H1571.74V192.185ZM1559.02 192.185H1565.38V198.545H1559.02V192.185ZM1546.3 192.185H1552.66V198.545H1546.3V192.185ZM1533.57 192.185H1539.93V198.545H1533.57V192.185ZM1527.21 192.185H1533.57V198.545H1527.21V192.185ZM1520.85 192.185H1527.21V198.545H1520.85V192.185ZM1508.13 192.185H1514.49V198.545H1508.13V192.185ZM1654.44 185.826H1660.8V192.185H1654.44V185.826ZM1648.08 185.826H1654.44V192.185H1648.08V185.826ZM1641.72 185.826H1648.08V192.185H1641.72V185.826ZM1635.35 185.826H1641.72V192.185H1635.35V185.826ZM1628.99 185.826H1635.35V192.185H1628.99V185.826ZM1622.63 185.826H1628.99V192.185H1622.63V185.826ZM1616.27 185.826H1622.63V192.185H1616.27V185.826ZM1609.91 185.826H1616.27V192.185H1609.91V185.826ZM1603.55 185.826H1609.91V192.185H1603.55V185.826ZM1590.83 185.826H1597.19V192.185H1590.83V185.826ZM1584.46 185.826H1590.83V192.185H1584.46V185.826ZM1578.1 185.826H1584.46V192.185H1578.1V185.826ZM1571.74 185.826H1578.1V192.185H1571.74V185.826ZM1559.02 185.826H1565.38V192.185H1559.02V185.826ZM1546.3 185.826H1552.66V192.185H1546.3V185.826ZM1533.57 185.826H1539.93V192.185H1533.57V185.826ZM1527.21 185.826H1533.57V192.185H1527.21V185.826ZM1520.85 185.826H1527.21V192.185H1520.85V185.826ZM1508.13 185.826H1514.49V192.185H1508.13V185.826ZM1660.8 179.465H1667.16V185.826H1660.8V179.465ZM1654.44 179.465H1660.8V185.826H1654.44V179.465ZM1641.72 179.465H1648.08V185.826H1641.72V179.465ZM1635.35 179.465H1641.72V185.826H1635.35V179.465ZM1609.91 179.465H1616.27V185.826H1609.91V179.465ZM1578.1 179.465H1584.46V185.826H1578.1V179.465ZM1565.38 179.465H1571.74V185.826H1565.38V179.465ZM1546.3 179.465H1552.66V185.826H1546.3V179.465ZM1508.13 179.465H1514.49V185.826H1508.13V179.465ZM1660.8 173.106H1667.16V179.465H1660.8V173.106ZM1654.44 173.106H1660.8V179.465H1654.44V173.106ZM1648.08 173.106H1654.44V179.465H1648.08V173.106ZM1641.72 173.106H1648.08V179.465H1641.72V173.106ZM1635.35 173.106H1641.72V179.465H1635.35V173.106ZM1622.63 173.106H1628.99V179.465H1622.63V173.106ZM1609.91 173.106H1616.27V179.465H1609.91V173.106ZM1590.83 173.106H1597.19V179.465H1590.83V173.106ZM1571.74 173.106H1578.1V179.465H1571.74V173.106ZM1559.02 173.106H1565.38V179.465H1559.02V173.106ZM1546.3 173.106H1552.66V179.465H1546.3V173.106ZM1539.93 173.106H1546.3V179.465H1539.93V173.106ZM1533.57 173.106H1539.93V179.465H1533.57V173.106ZM1527.21 173.106H1533.57V179.465H1527.21V173.106ZM1520.85 173.106H1527.21V179.465H1520.85V173.106ZM1514.49 173.106H1520.85V179.465H1514.49V173.106ZM1508.13 173.106H1514.49V179.465H1508.13V173.106ZM1648.08 166.746H1654.44V173.106H1648.08V166.746ZM1641.72 166.746H1648.08V173.106H1641.72V166.746ZM1635.35 166.746H1641.72V173.106H1635.35V166.746ZM1609.91 166.746H1616.27V173.106H1609.91V166.746ZM1603.55 166.746H1609.91V173.106H1603.55V166.746ZM1597.19 166.746H1603.55V173.106H1597.19V166.746ZM1578.1 166.746H1584.46V173.106H1578.1V166.746ZM1571.74 166.746H1578.1V173.106H1571.74V166.746ZM1565.38 166.746H1571.74V173.106H1565.38V166.746ZM1559.02 166.746H1565.38V173.106H1559.02V166.746ZM1648.08 160.387H1654.44V166.746H1648.08V160.387ZM1635.35 160.387H1641.72V166.746H1635.35V160.387ZM1628.99 160.387H1635.35V166.746H1628.99V160.387ZM1622.63 160.387H1628.99V166.746H1622.63V160.387ZM1616.27 160.387H1622.63V166.746H1616.27V160.387ZM1609.91 160.387H1616.27V166.746H1609.91V160.387ZM1603.55 160.387H1609.91V166.746H1603.55V160.387ZM1597.19 160.387H1603.55V166.746H1597.19V160.387ZM1590.83 160.387H1597.19V166.746H1590.83V160.387ZM1584.46 160.387H1590.83V166.746H1584.46V160.387ZM1578.1 160.387H1584.46V166.746H1578.1V160.387ZM1565.38 160.387H1571.74V166.746H1565.38V160.387ZM1552.66 160.387H1559.02V166.746H1552.66V160.387ZM1546.3 160.387H1552.66V166.746H1546.3V160.387ZM1539.93 160.387H1546.3V166.746H1539.93V160.387ZM1533.57 160.387H1539.93V166.746H1533.57V160.387ZM1527.21 160.387H1533.57V166.746H1527.21V160.387ZM1520.85 160.387H1527.21V166.746H1520.85V160.387ZM1508.13 160.387H1514.49V166.746H1508.13V160.387ZM1660.8 154.026H1667.16V160.387H1660.8V154.026ZM1641.72 154.026H1648.08V160.387H1641.72V154.026ZM1628.99 154.026H1635.35V160.387H1628.99V154.026ZM1609.91 154.026H1616.27V160.387H1609.91V154.026ZM1597.19 154.026H1603.55V160.387H1597.19V154.026ZM1559.02 154.026H1565.38V160.387H1559.02V154.026ZM1539.93 154.026H1546.3V160.387H1539.93V154.026ZM1508.13 154.026H1514.49V160.387H1508.13V154.026ZM1660.8 147.667H1667.16V154.026H1660.8V147.667ZM1654.44 147.667H1660.8V154.026H1654.44V147.667ZM1641.72 147.667H1648.08V154.026H1641.72V147.667ZM1635.35 147.667H1641.72V154.026H1635.35V147.667ZM1628.99 147.667H1635.35V154.026H1628.99V147.667ZM1616.27 147.667H1622.63V154.026H1616.27V147.667ZM1603.55 147.667H1609.91V154.026H1603.55V147.667ZM1597.19 147.667H1603.55V154.026H1597.19V147.667ZM1565.38 147.667H1571.74V154.026H1565.38V147.667ZM1546.3 147.667H1552.66V154.026H1546.3V147.667ZM1533.57 147.667H1539.93V154.026H1533.57V147.667ZM1527.21 147.667H1533.57V154.026H1527.21V147.667ZM1508.13 147.667H1514.49V154.026H1508.13V147.667ZM1654.44 141.306H1660.8V147.667H1654.44V141.306ZM1641.72 141.306H1648.08V147.667H1641.72V141.306ZM1628.99 141.306H1635.35V147.667H1628.99V141.306ZM1609.91 141.306H1616.27V147.667H1609.91V141.306ZM1584.46 141.306H1590.83V147.667H1584.46V141.306ZM1578.1 141.306H1584.46V147.667H1578.1V141.306ZM1559.02 141.306H1565.38V147.667H1559.02V141.306ZM1552.66 141.306H1559.02V147.667H1552.66V141.306ZM1539.93 141.306H1546.3V147.667H1539.93V141.306ZM1533.57 141.306H1539.93V147.667H1533.57V141.306ZM1514.49 141.306H1520.85V147.667H1514.49V141.306ZM1508.13 141.306H1514.49V147.667H1508.13V141.306ZM1660.8 134.947H1667.16V141.306H1660.8V134.947ZM1654.44 134.947H1660.8V141.306H1654.44V134.947ZM1648.08 134.947H1654.44V141.306H1648.08V134.947ZM1635.35 134.947H1641.72V141.306H1635.35V134.947ZM1628.99 134.947H1635.35V141.306H1628.99V134.947ZM1622.63 134.947H1628.99V141.306H1622.63V134.947ZM1603.55 134.947H1609.91V141.306H1603.55V134.947ZM1597.19 134.947H1603.55V141.306H1597.19V134.947ZM1590.83 134.947H1597.19V141.306H1590.83V134.947ZM1584.46 134.947H1590.83V141.306H1584.46V134.947ZM1578.1 134.947H1584.46V141.306H1578.1V134.947ZM1571.74 134.947H1578.1V141.306H1571.74V134.947ZM1565.38 134.947H1571.74V141.306H1565.38V134.947ZM1559.02 134.947H1565.38V141.306H1559.02V134.947ZM1546.3 134.947H1552.66V141.306H1546.3V134.947ZM1539.93 134.947H1546.3V141.306H1539.93V134.947ZM1533.57 134.947H1539.93V141.306H1533.57V134.947ZM1527.21 134.947H1533.57V141.306H1527.21V134.947ZM1520.85 134.947H1527.21V141.306H1520.85V134.947ZM1508.13 134.947H1514.49V141.306H1508.13V134.947ZM1660.8 128.586H1667.16V134.947H1660.8V128.586ZM1628.99 128.586H1635.35V134.947H1628.99V128.586ZM1616.27 128.586H1622.63V134.947H1616.27V128.586ZM1603.55 128.586H1609.91V134.947H1603.55V128.586ZM1597.19 128.586H1603.55V134.947H1597.19V128.586ZM1578.1 128.586H1584.46V134.947H1578.1V128.586ZM1559.02 128.586H1565.38V134.947H1559.02V128.586ZM1552.66 128.586H1559.02V134.947H1552.66V128.586ZM1520.85 128.586H1527.21V134.947H1520.85V128.586ZM1514.49 128.586H1520.85V134.947H1514.49V128.586ZM1508.13 128.586H1514.49V134.947H1508.13V128.586ZM1660.8 122.227H1667.16V128.586H1660.8V122.227ZM1654.44 122.227H1660.8V128.586H1654.44V122.227ZM1641.72 122.227H1648.08V128.586H1641.72V122.227ZM1635.35 122.227H1641.72V128.586H1635.35V122.227ZM1628.99 122.227H1635.35V128.586H1628.99V122.227ZM1622.63 122.227H1628.99V128.586H1622.63V122.227ZM1616.27 122.227H1622.63V128.586H1616.27V122.227ZM1609.91 122.227H1616.27V128.586H1609.91V122.227ZM1603.55 122.227H1609.91V128.586H1603.55V122.227ZM1590.83 122.227H1597.19V128.586H1590.83V122.227ZM1584.46 122.227H1590.83V128.586H1584.46V122.227ZM1571.74 122.227H1578.1V128.586H1571.74V122.227ZM1546.3 122.227H1552.66V128.586H1546.3V122.227ZM1533.57 122.227H1539.93V128.586H1533.57V122.227ZM1514.49 122.227H1520.85V128.586H1514.49V122.227ZM1508.13 122.227H1514.49V128.586H1508.13V122.227ZM1654.44 115.868H1660.8V122.227H1654.44V115.868ZM1628.99 115.868H1635.35V122.227H1628.99V115.868ZM1616.27 115.868H1622.63V122.227H1616.27V115.868ZM1609.91 115.868H1616.27V122.227H1609.91V115.868ZM1590.83 115.868H1597.19V122.227H1590.83V115.868ZM1578.1 115.868H1584.46V122.227H1578.1V115.868ZM1571.74 115.868H1578.1V122.227H1571.74V115.868ZM1508.13 115.868H1514.49V122.227H1508.13V115.868ZM1654.44 109.508H1660.8V115.868H1654.44V109.508ZM1641.72 109.508H1648.08V115.868H1641.72V109.508ZM1628.99 109.508H1635.35V115.868H1628.99V109.508ZM1616.27 109.508H1622.63V115.868H1616.27V109.508ZM1609.91 109.508H1616.27V115.868H1609.91V109.508ZM1603.55 109.508H1609.91V115.868H1603.55V109.508ZM1597.19 109.508H1603.55V115.868H1597.19V109.508ZM1590.83 109.508H1597.19V115.868H1590.83V109.508ZM1584.46 109.508H1590.83V115.868H1584.46V109.508ZM1565.38 109.508H1571.74V115.868H1565.38V109.508ZM1559.02 109.508H1565.38V115.868H1559.02V109.508ZM1552.66 109.508H1559.02V115.868H1552.66V109.508ZM1546.3 109.508H1552.66V115.868H1546.3V109.508ZM1533.57 109.508H1539.93V115.868H1533.57V109.508ZM1527.21 109.508H1533.57V115.868H1527.21V109.508ZM1520.85 109.508H1527.21V115.868H1520.85V109.508ZM1514.49 109.508H1520.85V115.868H1514.49V109.508ZM1508.13 109.508H1514.49V115.868H1508.13V109.508ZM1609.91 103.148H1616.27V109.508H1609.91V103.148ZM1603.55 103.148H1609.91V109.508H1603.55V103.148ZM1597.19 103.148H1603.55V109.508H1597.19V103.148ZM1584.46 103.148H1590.83V109.508H1584.46V103.148ZM1571.74 103.148H1578.1V109.508H1571.74V103.148ZM1565.38 103.148H1571.74V109.508H1565.38V103.148ZM1660.8 96.7882H1667.16V103.148H1660.8V96.7882ZM1654.44 96.7882H1660.8V103.148H1654.44V96.7882ZM1648.08 96.7882H1654.44V103.148H1648.08V96.7882ZM1641.72 96.7882H1648.08V103.148H1641.72V96.7882ZM1635.35 96.7882H1641.72V103.148H1635.35V96.7882ZM1628.99 96.7882H1635.35V103.148H1628.99V96.7882ZM1622.63 96.7882H1628.99V103.148H1622.63V96.7882ZM1609.91 96.7882H1616.27V103.148H1609.91V96.7882ZM1597.19 96.7882H1603.55V103.148H1597.19V96.7882ZM1584.46 96.7882H1590.83V103.148H1584.46V96.7882ZM1571.74 96.7882H1578.1V103.148H1571.74V96.7882ZM1559.02 96.7882H1565.38V103.148H1559.02V96.7882ZM1546.3 96.7882H1552.66V103.148H1546.3V96.7882ZM1539.93 96.7882H1546.3V103.148H1539.93V96.7882ZM1533.57 96.7882H1539.93V103.148H1533.57V96.7882ZM1527.21 96.7882H1533.57V103.148H1527.21V96.7882ZM1520.85 96.7882H1527.21V103.148H1520.85V96.7882ZM1514.49 96.7882H1520.85V103.148H1514.49V96.7882ZM1508.13 96.7882H1514.49V103.148H1508.13V96.7882ZM1660.8 90.4277H1667.16V96.7882H1660.8V90.4277ZM1622.63 90.4277H1628.99V96.7882H1622.63V90.4277ZM1603.55 90.4277H1609.91V96.7882H1603.55V90.4277ZM1590.83 90.4277H1597.19V96.7882H1590.83V90.4277ZM1565.38 90.4277H1571.74V96.7882H1565.38V90.4277ZM1559.02 90.4277H1565.38V96.7882H1559.02V90.4277ZM1546.3 90.4277H1552.66V96.7882H1546.3V90.4277ZM1508.13 90.4277H1514.49V96.7882H1508.13V90.4277ZM1660.8 84.0683H1667.16V90.4277H1660.8V84.0683ZM1648.08 84.0683H1654.44V90.4277H1648.08V84.0683ZM1641.72 84.0683H1648.08V90.4277H1641.72V84.0683ZM1635.35 84.0683H1641.72V90.4277H1635.35V84.0683ZM1622.63 84.0683H1628.99V90.4277H1622.63V84.0683ZM1609.91 84.0683H1616.27V90.4277H1609.91V84.0683ZM1578.1 84.0683H1584.46V90.4277H1578.1V84.0683ZM1565.38 84.0683H1571.74V90.4277H1565.38V84.0683ZM1546.3 84.0683H1552.66V90.4277H1546.3V84.0683ZM1533.57 84.0683H1539.93V90.4277H1533.57V84.0683ZM1527.21 84.0683H1533.57V90.4277H1527.21V84.0683ZM1520.85 84.0683H1527.21V90.4277H1520.85V84.0683ZM1508.13 84.0683H1514.49V90.4277H1508.13V84.0683ZM1660.8 77.7079H1667.16V84.0683H1660.8V77.7079ZM1648.08 77.7079H1654.44V84.0683H1648.08V77.7079ZM1641.72 77.7079H1648.08V84.0683H1641.72V77.7079ZM1635.35 77.7079H1641.72V84.0683H1635.35V77.7079ZM1622.63 77.7079H1628.99V84.0683H1622.63V77.7079ZM1609.91 77.7079H1616.27V84.0683H1609.91V77.7079ZM1603.55 77.7079H1609.91V84.0683H1603.55V77.7079ZM1597.19 77.7079H1603.55V84.0683H1597.19V77.7079ZM1590.83 77.7079H1597.19V84.0683H1590.83V77.7079ZM1571.74 77.7079H1578.1V84.0683H1571.74V77.7079ZM1565.38 77.7079H1571.74V84.0683H1565.38V77.7079ZM1559.02 77.7079H1565.38V84.0683H1559.02V77.7079ZM1546.3 77.7079H1552.66V84.0683H1546.3V77.7079ZM1533.57 77.7079H1539.93V84.0683H1533.57V77.7079ZM1527.21 77.7079H1533.57V84.0683H1527.21V77.7079ZM1520.85 77.7079H1527.21V84.0683H1520.85V77.7079ZM1508.13 77.7079H1514.49V84.0683H1508.13V77.7079ZM1660.8 71.3476H1667.16V77.7079H1660.8V71.3476ZM1648.08 71.3476H1654.44V77.7079H1648.08V71.3476ZM1641.72 71.3476H1648.08V77.7079H1641.72V71.3476ZM1635.35 71.3476H1641.72V77.7079H1635.35V71.3476ZM1622.63 71.3476H1628.99V77.7079H1622.63V71.3476ZM1597.19 71.3476H1603.55V77.7079H1597.19V71.3476ZM1546.3 71.3476H1552.66V77.7079H1546.3V71.3476ZM1533.57 71.3476H1539.93V77.7079H1533.57V71.3476ZM1527.21 71.3476H1533.57V77.7079H1527.21V71.3476ZM1520.85 71.3476H1527.21V77.7079H1520.85V71.3476ZM1508.13 71.3476H1514.49V77.7079H1508.13V71.3476ZM1660.8 64.9889H1667.16V71.3476H1660.8V64.9889ZM1622.63 64.9889H1628.99V71.3476H1622.63V64.9889ZM1603.55 64.9889H1609.91V71.3476H1603.55V64.9889ZM1571.74 64.9889H1578.1V71.3476H1571.74V64.9889ZM1559.02 64.9889H1565.38V71.3476H1559.02V64.9889ZM1546.3 64.9889H1552.66V71.3476H1546.3V64.9889ZM1508.13 64.9889H1514.49V71.3476H1508.13V64.9889ZM1660.8 58.6272H1667.16V64.9889H1660.8V58.6272ZM1654.44 58.6272H1660.8V64.9889H1654.44V58.6272ZM1648.08 58.6272H1654.44V64.9889H1648.08V58.6272ZM1641.72 58.6272H1648.08V64.9889H1641.72V58.6272ZM1635.35 58.6272H1641.72V64.9889H1635.35V58.6272ZM1628.99 58.6272H1635.35V64.9889H1628.99V58.6272ZM1622.63 58.6272H1628.99V64.9889H1622.63V58.6272ZM1609.91 58.6272H1616.27V64.9889H1609.91V58.6272ZM1584.46 58.6272H1590.83V64.9889H1584.46V58.6272ZM1546.3 58.6272H1552.66V64.9889H1546.3V58.6272ZM1539.93 58.6272H1546.3V64.9889H1539.93V58.6272ZM1533.57 58.6272H1539.93V64.9889H1533.57V58.6272ZM1527.21 58.6272H1533.57V64.9889H1527.21V58.6272ZM1520.85 58.6272H1527.21V64.9889H1520.85V58.6272ZM1514.49 58.6272H1520.85V64.9889H1514.49V58.6272ZM1508.13 58.6272H1514.49V64.9889H1508.13V58.6272Z" fill="#100F0D"/>
</svg>
